<svg width="22" height="13" viewBox="0 0 22 13" fill="none" xmlns="http://www.w3.org/2000/svg">
    <path d="M13.2193 0.562772C13.7845 0.64269 14.3379 0.784653 14.8848 0.952708C15.8395 1.2467 16.7403 1.65513 17.5876 2.18498C17.6465 2.22154 17.7252 2.24476 17.7947 2.24476C18.7898 2.24887 19.7846 2.24743 20.7789 2.24825C20.859 2.24825 20.9387 2.25668 21.0186 2.2612C21.0186 2.28071 21.0215 2.28893 21.0182 2.29345C20.9718 2.36495 20.9248 2.43541 20.8781 2.5067C20.5406 3.02443 20.2521 3.56598 20.0818 4.16466C20.0633 4.22896 20.0594 4.28279 20.103 4.34586C20.9889 5.61798 21.2715 7.01461 20.9013 8.52012C20.5767 9.84052 19.8199 10.87 18.6698 11.5989C17.8479 12.1202 16.9398 12.3683 15.9697 12.3737C15.5621 12.3761 15.1566 12.3213 14.7585 12.2181C13.7884 11.9665 12.9567 11.4829 12.2714 10.7504C12.181 10.6543 12.0959 10.5538 11.9996 10.4451C11.6372 10.9853 11.2806 11.5166 10.9153 12.0618C10.5514 11.5182 10.1997 10.992 9.84884 10.468C9.82459 10.4807 9.81761 10.4821 9.81289 10.4866C9.80487 10.4932 9.79809 10.5012 9.79172 10.5088C8.96277 11.4878 7.91996 12.0879 6.64951 12.2886C5.94279 12.4006 5.24286 12.3603 4.55648 12.1711C3.58372 11.9038 2.75703 11.3906 2.08914 10.6333C1.43645 9.89291 1.0305 9.03332 0.878066 8.05601C0.703647 7.14383 0.916072 6.26432 0.969076 6.05086C1.12275 5.43041 1.39064 4.86071 1.75838 4.33682C1.78426 4.29963 1.7933 4.23389 1.78098 4.18951C1.63101 3.63953 1.37256 3.13927 1.06995 2.66017C0.993113 2.53834 0.901075 2.42555 0.816023 2.30865C0.816023 2.2953 0.816023 2.28153 0.816023 2.26798C0.833074 2.27003 0.849921 2.27332 0.866561 2.27332C1.88473 2.27373 2.90268 2.27414 3.92085 2.27208C3.96522 2.27208 4.01453 2.2538 4.05233 2.22956C4.76767 1.77059 5.52986 1.40695 6.33067 1.12385C6.90816 0.920042 7.49777 0.761027 8.0991 0.644539C8.68132 0.531954 9.26662 0.452652 9.85808 0.413618C11.3001 0.302677 12.4526 0.455323 13.2193 0.562772ZM11.9429 7.28723C11.9429 9.52311 13.7569 11.3497 15.9847 11.3411C18.221 11.3331 20.0268 9.55783 20.0251 7.2973C20.0235 4.96775 18.1339 3.21652 15.898 3.26192C13.6908 3.30774 11.963 5.0869 11.9429 7.28723ZM5.88014 3.24652C3.70534 3.22761 1.80912 5.04273 1.84713 7.35483C1.88247 9.51098 3.65953 11.3388 5.92533 11.3193C8.1408 11.3004 9.92156 9.49126 9.92567 7.30038C9.92916 5.04951 8.12663 3.24652 5.88014 3.24652ZM6.08065 2.19175C7.30918 2.26674 8.38836 2.69489 9.30011 3.52407C10.21 4.35161 10.7431 5.38398 10.9369 6.59796C11.1361 5.39836 11.6553 4.37565 12.5481 3.55633C13.4424 2.73619 14.5072 2.30578 15.7156 2.21477C14.2816 1.57727 12.7696 1.30649 11.2132 1.27649C9.44432 1.24177 7.72376 1.50248 6.08065 2.19175Z" fill="white"></path>
    <path d="M15.9756 4.73865C17.359 4.73639 18.4794 5.85114 18.4794 7.23338C18.4794 8.62097 17.3781 9.6936 16.0787 9.74311C14.6275 9.79879 13.4664 8.64233 13.4668 7.23954C13.468 5.82073 14.6374 4.71523 15.9756 4.73865ZM17.6073 7.23954C17.6067 6.33764 16.8777 5.6046 15.9822 5.6046C15.0763 5.6046 14.3389 6.33373 14.3352 7.23297C14.332 8.12831 15.073 8.87325 15.9704 8.87572C16.8693 8.87921 17.6077 8.13981 17.6073 7.23954Z" fill="white"></path>
    <path d="M5.82591 4.73866C7.20848 4.73723 8.33059 5.85403 8.3271 7.23607C8.32319 8.63495 7.2208 9.68417 5.94422 9.74231C4.48731 9.80887 3.31179 8.64728 3.31446 7.23689C3.31733 5.80801 4.4947 4.71483 5.82591 4.73866ZM7.45578 7.23401C7.45311 6.32656 6.71941 5.60318 5.80352 5.60482C4.92009 5.60647 4.17982 6.35224 4.18187 7.23915C4.18413 8.13633 4.92358 8.87409 5.82345 8.87656C6.71777 8.87861 7.45804 8.13366 7.45578 7.23401Z" fill="white"></path>
    <path d="M15.9778 6.4043C16.4362 6.40389 16.8121 6.78006 16.8078 7.23594C16.8033 7.69286 16.4337 8.06307 15.9829 8.06328C15.5187 8.06328 15.1455 7.69635 15.1465 7.2417C15.1473 6.76999 15.5098 6.40471 15.9778 6.4043Z" fill="white"></path>
    <path d="M5.8216 6.39453C6.28704 6.39412 6.66107 6.76598 6.66292 7.23008C6.66477 7.69028 6.28724 8.0681 5.82406 8.06912C5.34979 8.07015 4.98396 7.70363 4.98438 7.22679C4.98438 6.75858 5.34938 6.39515 5.8216 6.39453Z" fill="white"></path>
</svg>