<svg width="6" height="12" viewBox="0 0 6 12" fill="none" xmlns="http://www.w3.org/2000/svg">
    <path d="M1.88258 2.55376C1.88258 2.83726 1.88258 4.10266 1.88258 4.10266H0.748047V5.99666H1.88258V11.625H4.21314V5.99682H5.77706C5.77706 5.99682 5.92353 5.08866 5.99453 4.09568C5.79097 4.09568 4.22196 4.09568 4.22196 4.09568C4.22196 4.09568 4.22196 2.99381 4.22196 2.80067C4.22196 2.60712 4.47606 2.34676 4.72721 2.34676C4.97788 2.34676 5.50696 2.34676 5.99699 2.34676C5.99699 2.08889 5.99699 1.19789 5.99699 0.375C5.34281 0.375 4.59857 0.375 4.27052 0.375C1.82497 0.374869 1.88258 2.27075 1.88258 2.55376Z" fill="white"></path>
</svg>