<svg width="14" height="14" viewBox="0 0 14 14" fill="none" xmlns="http://www.w3.org/2000/svg">
    <path d="M9.9909 0.25H3.94211C1.88798 0.25 0.216797 1.9213 0.216797 3.9755V10.0245C0.216797 12.0787 1.88798 13.75 3.94211 13.75H9.9909C12.0452 13.75 13.7164 12.0786 13.7164 10.0245V3.9755C13.7165 1.9213 12.0452 0.25 9.9909 0.25ZM12.5187 10.0245C12.5187 11.4183 11.3848 12.5522 9.99098 12.5522H3.94211C2.54841 12.5523 1.41455 11.4183 1.41455 10.0245V3.9755C1.41455 2.58176 2.54841 1.44778 3.94211 1.44778H9.9909C11.3847 1.44778 12.5186 2.58176 12.5186 3.9755V10.0245H12.5187Z" fill="white"></path>
    <path d="M6.96678 3.5293C5.04871 3.5293 3.48828 5.08977 3.48828 7.00789C3.48828 8.92594 5.04871 10.4863 6.96678 10.4863C8.88486 10.4863 10.4453 8.92594 10.4453 7.00789C10.4453 5.08977 8.88486 3.5293 6.96678 3.5293ZM6.96678 9.28847C5.70923 9.28847 4.68603 8.26541 4.68603 7.00781C4.68603 5.75014 5.70915 4.727 6.96678 4.727C8.22442 4.727 9.24754 5.75014 9.24754 7.00781C9.24754 8.26541 8.22434 9.28847 6.96678 9.28847Z" fill="white"></path>
    <path d="M10.5911 2.50586C10.3604 2.50586 10.1337 2.59929 9.97076 2.76298C9.80702 2.92588 9.71289 3.15266 9.71289 3.38423C9.71289 3.61508 9.8071 3.84178 9.97076 4.00548C10.1336 4.16838 10.3604 4.26261 10.5911 4.26261C10.8226 4.26261 11.0485 4.16838 11.2122 4.00548C11.3759 3.84178 11.4693 3.615 11.4693 3.38423C11.4693 3.15266 11.3759 2.92588 11.2122 2.76298C11.0493 2.59929 10.8226 2.50586 10.5911 2.50586Z" fill="white"></path>
</svg>