<svg width="16" height="13" viewBox="0 0 16 13" fill="none" xmlns="http://www.w3.org/2000/svg">
    <path d="M10.3249 5.64331L6.8461 3.73947C6.64607 3.63 6.40965 3.63408 6.21359 3.75028C6.0174 3.8666 5.90039 4.07207 5.90039 4.30014V8.07514C5.90039 8.30212 6.01668 8.50724 6.21154 8.62368C6.3133 8.68448 6.42611 8.715 6.53915 8.715C6.64271 8.715 6.74651 8.68941 6.84202 8.63798L10.3209 6.76694C10.5274 6.65579 10.6563 6.44106 10.6573 6.20638C10.6581 5.97171 10.5308 5.75602 10.3249 5.64331ZM6.82315 7.60026V4.77886L9.42314 6.20182L6.82315 7.60026Z" fill="white"></path>
    <path d="M15.6629 3.19051L15.6621 3.1833C15.6488 3.05653 15.516 1.92893 14.9679 1.3554C14.3343 0.680811 13.616 0.598861 13.2705 0.559568C13.2419 0.556324 13.2157 0.55332 13.1923 0.550196L13.1648 0.547312C11.0827 0.395908 7.93824 0.37524 7.90676 0.37512L7.90399 0.375L7.90123 0.37512C7.86975 0.37524 4.72532 0.395908 2.62448 0.547312L2.59672 0.550196C2.57437 0.5532 2.54974 0.555963 2.52294 0.559088C2.18145 0.598501 1.47084 0.680571 0.835439 1.37955C0.313351 1.94696 0.162432 3.0504 0.146932 3.17441L0.145129 3.19051C0.140443 3.24326 0.0292969 4.49907 0.0292969 5.75981V6.93835C0.0292969 8.19909 0.140443 9.4549 0.145129 9.50777L0.145971 9.5157C0.159308 9.64043 0.291963 10.7474 0.837602 11.3211C1.43335 11.9731 2.18662 12.0594 2.59179 12.1058C2.65584 12.1131 2.71099 12.1194 2.7486 12.126L2.78501 12.131C3.98719 12.2454 7.75644 12.3018 7.91625 12.3041L7.92106 12.3042L7.92586 12.3041C7.95734 12.3039 11.1016 12.2833 13.1837 12.1319L13.2113 12.129C13.2376 12.1255 13.2671 12.1224 13.2996 12.119C13.6391 12.083 14.3459 12.0081 14.9725 11.3186C15.4946 10.7511 15.6457 9.64764 15.6611 9.52375L15.6629 9.50765C15.6675 9.45478 15.7788 8.19909 15.7788 6.93835V5.75981C15.7787 4.49907 15.6675 3.24338 15.6629 3.19051ZM14.8558 6.93835C14.8558 8.10524 14.7539 9.30698 14.7442 9.41729C14.7051 9.72118 14.5459 10.4193 14.2915 10.6958C13.8993 11.1273 13.4964 11.1701 13.2023 11.2012C13.1667 11.2049 13.1338 11.2085 13.104 11.2123C11.0901 11.3579 8.0644 11.3802 7.92502 11.3811C7.76869 11.3788 4.0546 11.322 2.88907 11.2137C2.82935 11.204 2.76482 11.1965 2.69681 11.1888C2.35184 11.1493 1.87961 11.0952 1.5165 10.6958L1.50797 10.6867C1.25804 10.4263 1.10339 9.77345 1.0641 9.42089C1.05677 9.3375 0.952233 8.12158 0.952233 6.93835V5.75981C0.952233 4.59424 1.05389 3.39382 1.06374 3.28123C1.11048 2.92327 1.2727 2.26743 1.5165 2.00235C1.92071 1.55775 2.34691 1.50849 2.6288 1.47592C2.65572 1.4728 2.68083 1.46991 2.70402 1.46691C4.74719 1.32055 7.79465 1.2988 7.90399 1.29796C8.01334 1.29868 11.0597 1.32055 13.0847 1.46691C13.1096 1.47003 13.1368 1.47316 13.166 1.47652C13.4559 1.50957 13.8941 1.55955 14.2963 1.98853L14.3 1.9925C14.5499 2.25289 14.7046 2.91714 14.7439 3.27678C14.7509 3.35549 14.8558 4.57405 14.8558 5.75981V6.93835Z" fill="white"></path>
</svg>